<?xml version="1.0" encoding="UTF-8"?><svg id="Layer_1" xmlns="http://www.w3.org/2000/svg" viewBox="0 0 1499.999989 318.451252"><path d="M76.931569,13.000038c35.25193,0,63.931427,28.679504,63.931427,63.931427v164.588356c0,35.25193-28.679565,63.931431-63.931564,63.931431s-63.931432-28.679501-63.931432-63.931431V76.931465c0-35.251923,28.67957-63.931427,63.931569-63.931427M76.931569.000038h-.000137C34.443356.000038,0,34.443398,0,76.931465v164.588356c0,42.488003,34.443356,76.931431,76.931431,76.931431h.000137c42.488075,0,76.931427-34.443428,76.931427-76.931431V76.931465C153.862996,34.443398,119.419644.000038,76.931569.000038h0Z"/><circle cx="76.931497" cy="78.125494" r="55.630349"/><path d="M241.519764.000008h-.000122C199.031544.000008,164.588185,34.443367,164.588185,76.931404v164.588379c0,42.488037,34.443359,76.931458,76.931458,76.931458h.000122c42.488098,0,76.931458-34.44342,76.931458-76.931458V76.931404C318.451222,34.443367,284.007863.000008,241.519764.000008ZM241.519703,295.956062c-30.723816,0-55.630371-24.906555-55.630371-55.63031s24.906555-55.630371,55.630371-55.630371,55.630371,24.906555,55.630371,55.630371-24.906555,55.63031-55.630371,55.63031Z"/><path d="M602.103422,256.856532v.000065c0,17.997472-14.589833,32.587305-32.587305,32.587305h-65.17474c-17.997472,0-32.587305-14.589833-32.587305-32.587305v-16.293701c0-4.497069-1.824883-8.570486-4.790243-11.535846-2.93294-2.93294-7.006357-4.757823-11.503426-4.757823h-16.293701c-17.997472,0-32.587305-14.589833-32.587305-32.587305V61.332506c0-17.997472,14.589833-32.587305,32.587305-32.587305h.000065c17.997472,0,32.587305,14.589833,32.587305,32.587305v146.643052c0,9.026756,7.299731,16.293669,16.293669,16.293669h81.468377c17.997472,0,32.587305,14.589833,32.587305,32.587305Z"/><path d="M701.018655,98.677699c-2.965559,2.96536-4.790442,7.038777-4.790442,11.535846,0,9.026756,7.299731,16.293669,16.293669,16.293669h16.293701c17.997472,0,32.587305,14.589833,32.587305,32.587305v.000065c0,17.997472-14.589833,32.587305-32.587305,32.587305h-16.293701c-4.497069,0-8.570486,1.824883-11.503227,4.757823-2.965559,2.96536-4.790442,7.038777-4.790442,11.535846,0,9.026756,7.299731,16.293669,16.293669,16.293669h81.468377c17.997472,0,32.587305,14.589833,32.587305,32.587305v.000065c0,17.997472-14.589833,32.587305-32.587305,32.587305h-130.349416c-17.997472,0-32.587305-14.589833-32.587305-32.587305v-32.587403c0-17.997472,14.589833-32.587305,32.587305-32.587305h16.293701c4.497069,0,8.570486-1.824883,11.503426-4.757823,2.96536-2.932741,4.790243-7.038777,4.790243-11.535846v-32.587338c0-4.497069-1.824883-8.570486-4.790243-11.535846-2.93294-2.93294-7.006357-4.757823-11.503426-4.757823h-16.293701c-17.997472,0-32.587305-14.589833-32.587305-32.587305v-32.587403c0-17.997472,14.589833-32.587305,32.587305-32.587305h130.349416c17.997472,0,32.587305,14.589833,32.587305,32.587305v.000065c0,17.997472-14.589833,32.587305-32.587305,32.587305h-81.468377c-4.497069,0-8.570486,1.824883-11.503227,4.757823Z"/><path d="M1149.966939,98.677699c-2.965559,2.96536-4.790442,7.038777-4.790442,11.535846,0,9.026756,7.299731,16.293669,16.293669,16.293669h16.293701c17.997472,0,32.587305,14.589833,32.587305,32.587305v.000065c0,17.997472-14.589833,32.587305-32.587305,32.587305h-16.293701c-4.497069,0-8.570486,1.824883-11.503227,4.757823-2.965559,2.96536-4.790442,7.038777-4.790442,11.535846,0,9.026756,7.299731,16.293669,16.293669,16.293669h81.468377c17.997472,0,32.587305,14.589833,32.587305,32.587305v.000065c0,17.997472-14.589833,32.587305-32.587305,32.587305h-130.349416c-17.997472,0-32.587305-14.589833-32.587305-32.587305v-32.587403c0-17.997472,14.589833-32.587305,32.587305-32.587305h16.293701c4.497069,0,8.570486-1.824883,11.503426-4.757823,2.96536-2.932741,4.790243-7.038777,4.790243-11.535846v-32.587338c0-4.497069-1.824883-8.570486-4.790243-11.535846-2.93294-2.93294-7.006357-4.757823-11.503426-4.757823h-16.293701c-17.997472,0-32.587305-14.589833-32.587305-32.587305v-32.587403c0-17.997472,14.589833-32.587305,32.587305-32.587305h130.349416c17.997472,0,32.587305,14.589833,32.587305,32.587305v.000065c0,17.997472-14.589833,32.587305-32.587305,32.587305h-81.468377c-4.497069,0-8.570486,1.824883-11.503227,4.757823Z"/><path d="M1051.051705,61.332506v130.349416c0,17.997472-14.589833,32.587305-32.587305,32.587305h-16.293701c-8.998745,0-16.293669,7.294924-16.293669,16.293669v16.293701c0,17.997472-14.589833,32.587305-32.587305,32.587305h-.000065c-17.997472,0-32.587305-14.589833-32.587305-32.587305v-16.293701c0-4.497069-1.824883-8.570486-4.790243-11.535846-2.93294-2.93294-7.006357-4.757823-11.503426-4.757823h-16.293701c-17.997472,0-32.587305-14.589833-32.587305-32.587305V61.332506c0-17.997472,14.589833-32.587305,32.587305-32.587305h.000065c17.997472,0,32.587305,14.589833,32.587305,32.587305v146.643052c0,9.026756,7.299731,16.293669,16.293669,16.293669h32.619957c4.497069,0,8.570486-1.824883,11.536045-4.757823,2.802463-2.835082,4.594727-6.712984,4.725005-10.981917.032619-.195516.032619-.358413.032619-.553929s0-.358413-.032619-.553929V61.332506c0-17.997472,14.589833-32.587305,32.587305-32.587305h.000065c17.997472,0,32.587305,14.589833,32.587305,32.587305Z"/><path d="M1439.582938,163.852374c2.965559-2.93294,7.038976-4.757823,11.536045-4.757823h16.293701c17.997472,0,32.587305-14.589833,32.587305-32.587305V61.332506c0-17.997472-14.589833-32.587305-32.587305-32.587305h-65.17474c-17.997472,0-32.587305,14.589833-32.587305,32.587305v16.293701c0,4.497069-1.824883,8.603105-4.757823,11.535846-2.96536,2.93294-7.038777,4.757823-11.535846,4.757823h-16.293701c-17.997472,0-32.587305,14.589833-32.587305,32.587305v130.349416c0,17.997472,14.589833,32.587305,32.587305,32.587305h.000065c17.997472,0,32.587305-14.589833,32.587305-32.587305v-16.293701c0-4.497069,1.824883-8.570486,4.757624-11.535846,2.965559-2.93294,7.038976-4.757823,11.536045-4.757823h32.587338c4.497069,0,8.570486,1.824883,11.535846,4.757823,2.93294,2.96536,4.757823,7.038777,4.757823,11.535846v16.293701c0,17.997472,14.589833,32.587305,32.587305,32.587305h.000065c17.997472,0,32.587305-14.589833,32.587305-32.587305v-.000065c0-17.997472-14.589833-32.587305-32.587305-32.587305h-16.293701c-8.994137,0-16.293669-7.266913-16.293669-16.293669v-32.587338c0-4.497069,1.824883-8.570486,4.757624-11.535846ZM1385.944307,159.094551c-8.994137,0-16.293669-7.266913-16.293669-16.293669v-32.587338c0-4.497069,1.824883-8.570486,4.757624-11.535846,2.965559-2.93294,7.038976-4.757823,11.536045-4.757823h32.587338c4.497069,0,8.570486,1.824883,11.535846,4.757823,2.93294,2.96536,4.757823,7.038777,4.757823,11.535846v32.587338c0,4.497069-1.824883,8.603105-4.757823,11.535846-2.96536,2.93294-7.038777,4.757823-11.535846,4.757823h-32.587338Z"/></svg>